<?xml version="1.0" encoding="UTF-8"?>
<svg id="Ebene_1" data-name="Ebene 1" xmlns="http://www.w3.org/2000/svg" viewBox="0 0 735.42 157.85">
  <defs>
    <style>
      .cls-1 {
        fill: #14b5e1;
      }

      .cls-2 {
        fill-rule: evenodd;
      }

      .cls-2, .cls-3 {
        fill: #00b8e1;
      }
    </style>
  </defs>
  <g>
    <path class="cls-3" d="M52.5,157.34l22.07.5c12.55.29,24-7.12,28.89-18.67l25.82-59.73-22.07-.5c-12.55-.29-24,7.12-28.89,18.67l-25.82,59.73Z"/>
    <path class="cls-3" d="M0,157.34l22.07.5c12.55.29,24-7.12,28.89-18.67L112.01.51,89.94,0c-12.55-.29-24,7.12-28.89,18.67L0,157.34Z"/>
    <path class="cls-3" d="M104.27,157.34l22.07.5c12.55.29,24-7.12,28.89-18.67L216.28.51,194.21,0c-12.55-.29-24,7.12-28.89,18.67l-61.05,138.66Z"/>
  </g>
  <g>
    <path class="cls-2" d="M524.59,78.71h14.41l1.15,7.27c4.84-7.78,11.34-8.93,17.72-8.93,1.5,0,2.99.13,4.43.39l-1.44,15.65c-1.45-.4-3.08-.61-5.03-.61-8.16,0-15.68,4.34-15.68,15.94v33.15h-15.56v-62.86h0ZM468.34,102.81c2.29-8.16,9.18-12.24,17.59-12.24,8.92,0,15.3,4.08,16.32,12.24h-33.91ZM517.17,115.69h-49.09c1.02,7.78,7.78,13.39,18.74,13.39,5.74,0,13.26-2.17,16.83-5.86l9.95,9.82c-6.63,6.88-17.47,10.2-27.03,10.2-21.67,0-34.55-13.39-34.55-33.54s13.01-32.89,33.41-32.89,34.17,13.01,31.74,38.89h0ZM399.98,52.45h15.55v51.51l21.17-25.25h18.61v.89l-25.63,28.69,29.2,32.13v1.15h-18.74l-24.61-28.43v28.43h-15.55V52.45h0ZM377.5,52.45h15.43v89.12h-15.43V52.45h0ZM336.4,91.08c24.48,0,24.48,38.12,0,38.12-10.33,0-18.62-7.14-18.62-19.13s8.29-19,18.62-19h0ZM355.02,87.38l.51-8.67h14.92v62.86h-14.66l-.77-9.18c-3.57,7.39-13.39,10.96-20.4,11.09-18.62.13-32.39-11.35-32.39-33.41s14.41-33.02,32.77-32.89c8.41,0,16.45,3.95,20.02,10.2Z"/>
    <path class="cls-3" d="M302.72,80.35l-22.88,63.14h-17.6l-14.2-39.2-14.67,39.2h-17.6l-22.77-63.14h17.25l14.9,42.72,15.49-42.72h15.49l15.02,42.72,15.37-42.72h16.2Z"/>
    <path class="cls-3" d="M606.54,53.22c26.52-1.88,45.43,13.39,48.22,39.84,3.49,33.1-14.68,57.33-49.41,54.75-51.75-3.83-53.27-90.73,1.19-94.59ZM607.99,69.49c-34.05,3.49-27.39,73.81,11.03,60.89,24.74-8.32,22.69-64.35-11.03-60.89Z"/>
    <path class="cls-1" d="M733.32,80.95h-18.1c.26-14.73-28.63-16.18-32.24-4.54-4.51,14.53,19.7,15.2,28.78,17.58,11.16,2.93,21.57,8.18,23.33,20.8,2.34,16.8-7.98,28.31-23.78,31.83-20.34,4.53-49.42-1.16-50.03-26.64h18.1c1.82,12.35,19.51,14.51,29.05,10.76,9.15-3.59,10.81-14.44,1.36-18.9-10.81-5.1-23.59-3.68-34.87-10.36-17.34-10.28-14.71-33.95,2.04-43.37,19.56-11,56.65-4.87,56.35,22.83Z"/>
  </g>
</svg>